<svg width="370" height="344" viewBox="0 0 370 344" fill="none" xmlns="http://www.w3.org/2000/svg">
<path d="M7.5 169.5V286.5L66 324.5L167.5 338L287 328.5L348.5 306.5L361.5 286.5L365 218.5L361.5 162.5L340.5 147L287 162.5L175 175.5L62 158.5L24 147L7.5 169.5Z" fill="#00F0FF" stroke="black"/>
<path d="M43 123L28 142.5L112.5 168.5L196.5 172L277 164.5L325.5 154.5L339 142.5L335.5 132L316 119.5L268 108L222.5 104.5L170 101.5L135 104.5V78L142 60H180H222.5L253.5 55L268 40.5V27L253.5 7.5H173H145.5L121 14L103.5 27L89.5 48L83 78V104.5L72.5 115.5L43 123Z" fill="#FF0000" stroke="black"/>
<path fill-rule="evenodd" clip-rule="evenodd" d="M273.654 247.767C273.654 252.001 274.281 249.917 275.503 255.162C306.838 255.162 331.63 240.777 356.861 227.427C356.861 254.468 338.361 264.859 309.898 272.915C291.642 278.083 271.115 283.085 251.545 284.825C225.438 287.146 235.703 299.539 242.221 299.539C258.603 299.539 292.656 292.691 305.347 288.704C319.395 284.29 332.317 280.092 344.699 272.585C346.997 271.193 348.355 270.638 350.542 269.182C353.699 267.081 353.852 266.422 356.861 264.408C356.861 288.742 352.259 294.091 336.489 303.204C325.392 309.618 308.02 315.462 293.264 319.147C226.109 335.917 101.085 337.177 38.2029 305.712C25.308 299.26 12.9444 292.007 12.9444 273.652V177.504C12.9444 164.417 23.1963 153.467 25.8876 153.467L59.3985 164.333C128.052 185.04 236.193 182.925 307.328 164.951C313.488 163.394 340.922 153.467 342.069 153.467C356.693 153.467 365.681 199.758 346.281 216.846C342.959 219.772 339.928 221.116 336.192 223.399C314.209 236.835 273.656 240.491 273.656 247.767H273.654ZM127.583 70.2608C127.583 104.4 120.537 140.523 146.073 140.523C153.763 140.523 153.468 133.672 153.468 129.428C149.005 127.287 142 127.5 142 123L140.525 110.938C146.308 110.457 147.093 109.09 153.468 109.09C206.963 109.09 259.364 107.645 309.958 124.558C320.527 128.091 331.868 131.876 334.672 142.372L304.719 151.249C293.202 154.104 285.449 155.751 272.586 157.946C210.243 168.586 125.935 167.496 64.6867 151.645C54.3479 148.969 45.3894 144.762 35.1309 142.372C38.4262 130.031 64.8219 121.098 75.8096 120.184C72.9599 130.856 62.8664 126.341 62.8664 133.127C62.8664 144.13 90.8009 148.356 90.6381 109.126C90.5677 92.1196 88.8629 71.7577 93.5516 58.4185C102.975 31.6081 126.816 12.9411 155.317 12.9411H242.22C261.283 12.9411 265.767 36.1571 254.473 45.5335C244.126 54.1235 169.413 49.1697 151.526 49.8296C139.731 50.2641 127.581 58.5615 127.581 70.2608H127.583ZM75.8107 105.392C62.7245 108.441 35.9383 117.474 27.3703 127.214C21.3628 134.044 24.5975 135.684 12.4769 147.453C7.50111 152.284 0 161.274 0 170.108V279.2C0 332.02 126.779 343.915 160.865 343.915C221.107 343.915 248.156 345.645 307.311 329.498C323.371 325.115 333.393 320.658 346.369 313.085C358.839 305.807 369.803 295.522 369.803 279.2V173.806C369.803 163.635 365.464 155.71 360.148 150.178C357.154 147.064 354.566 145.089 351.697 141.989C343.214 132.824 347.602 121.042 302.58 107.899C285.842 103.014 268 100 246 97.5C239 96.7045 231.181 96.0945 231.181 96.0945C225.796 95.8548 220.385 95.2398 215 95C206.875 94.6381 207.874 94.6108 199.747 94.2457C179.336 93.3284 159.469 96.1484 140.525 96.1484C140.525 79.4964 138.617 75.3114 144.223 64.7152C169.071 64.7152 234.975 68.1721 252.562 62.1152C288.784 49.6404 274.671 0 247.767 0H149.769C125.68 0 102.476 17.0744 92.4111 31.3947C75.4819 55.4796 75.8085 65.8041 75.8085 105.394L75.8107 105.392Z" fill="#303656"/>
</svg>
